<mxfile host="Electron" agent="Mozilla/5.0 (Macintosh; Intel Mac OS X 10_15_7) AppleWebKit/537.36 (KHTML, like Gecko) draw.io/24.7.17 Chrome/128.0.6613.36 Electron/32.0.1 Safari/537.36" version="24.7.17">
  <diagram name="Page-1" id="iNNYlbe3-4Ooxjo6LtMs">
    <mxGraphModel dx="794" dy="680" grid="1" gridSize="10" guides="1" tooltips="1" connect="1" arrows="1" fold="1" page="1" pageScale="1" pageWidth="600" pageHeight="500" math="0" shadow="0">
      <root>
        <mxCell id="0" />
        <mxCell id="1" parent="0" />
        <mxCell id="o1ZbVhDIcnXMFWxJgNu6-1" value="&lt;font style=&quot;font-size: 18px;&quot;&gt;user&lt;/font&gt;" style="rounded=0;whiteSpace=wrap;html=1;" vertex="1" parent="1">
          <mxGeometry x="10" y="10" width="200" height="50" as="geometry" />
        </mxCell>
        <mxCell id="o1ZbVhDIcnXMFWxJgNu6-2" value="&lt;font style=&quot;font-size: 18px;&quot;&gt;route_info&lt;/font&gt;" style="rounded=0;whiteSpace=wrap;html=1;strokeColor=default;align=center;verticalAlign=middle;fontFamily=Helvetica;fontSize=12;fontColor=default;fillColor=default;" vertex="1" parent="1">
          <mxGeometry x="10" y="180" width="200" height="50" as="geometry" />
        </mxCell>
        <mxCell id="o1ZbVhDIcnXMFWxJgNu6-3" value="&lt;font style=&quot;font-size: 18px;&quot;&gt;navigation_requests_history&lt;/font&gt;" style="rounded=0;whiteSpace=wrap;html=1;strokeColor=default;align=center;verticalAlign=middle;fontFamily=Helvetica;fontSize=12;fontColor=default;fillColor=default;" vertex="1" parent="1">
          <mxGeometry x="330" y="139" width="260" height="50" as="geometry" />
        </mxCell>
        <mxCell id="o1ZbVhDIcnXMFWxJgNu6-8" style="edgeStyle=orthogonalEdgeStyle;rounded=0;orthogonalLoop=1;jettySize=auto;html=1;exitX=1;exitY=0.5;exitDx=0;exitDy=0;entryX=0;entryY=0.5;entryDx=0;entryDy=0;endArrow=ERzeroToMany;endFill=0;startArrow=ERmandOne;startFill=0;" edge="1" parent="1" source="o1ZbVhDIcnXMFWxJgNu6-4" target="o1ZbVhDIcnXMFWxJgNu6-6">
          <mxGeometry relative="1" as="geometry">
            <Array as="points">
              <mxPoint x="240" y="110" />
              <mxPoint x="240" y="285" />
            </Array>
          </mxGeometry>
        </mxCell>
        <mxCell id="o1ZbVhDIcnXMFWxJgNu6-4" value="user_id INT (PK&lt;span style=&quot;background-color: initial;&quot;&gt;)&lt;/span&gt;&lt;div&gt;&lt;br&gt;&lt;div&gt;&lt;div&gt;name VARCHAR&lt;/div&gt;&lt;div&gt;&lt;br&gt;&lt;/div&gt;&lt;div&gt;mail VARCHAR&lt;/div&gt;&lt;/div&gt;&lt;/div&gt;" style="rounded=0;whiteSpace=wrap;html=1;" vertex="1" parent="1">
          <mxGeometry x="10" y="60" width="200" height="100" as="geometry" />
        </mxCell>
        <mxCell id="o1ZbVhDIcnXMFWxJgNu6-9" style="edgeStyle=orthogonalEdgeStyle;rounded=0;orthogonalLoop=1;jettySize=auto;html=1;exitX=1.01;exitY=0.892;exitDx=0;exitDy=0;startArrow=ERmandOne;startFill=0;endArrow=ERmandOne;endFill=0;exitPerimeter=0;" edge="1" parent="1" source="o1ZbVhDIcnXMFWxJgNu6-5">
          <mxGeometry relative="1" as="geometry">
            <mxPoint x="320" y="310" as="targetPoint" />
            <Array as="points">
              <mxPoint x="240" y="346" />
              <mxPoint x="240" y="310" />
              <mxPoint x="330" y="310" />
            </Array>
          </mxGeometry>
        </mxCell>
        <mxCell id="o1ZbVhDIcnXMFWxJgNu6-5" value="route_info_id INT (PK)&lt;div&gt;&lt;br&gt;&lt;/div&gt;&lt;div&gt;route_time INT&lt;/div&gt;&lt;div&gt;&lt;br&gt;&lt;/div&gt;&lt;div&gt;route_length INT&lt;/div&gt;&lt;div&gt;&lt;br&gt;&lt;/div&gt;&lt;div&gt;changes_count INT&lt;/div&gt;" style="rounded=0;whiteSpace=wrap;html=1;" vertex="1" parent="1">
          <mxGeometry x="10" y="230" width="200" height="130" as="geometry" />
        </mxCell>
        <mxCell id="o1ZbVhDIcnXMFWxJgNu6-6" value="&lt;div&gt;navigation_requests_history INT (PK)&lt;/div&gt;&lt;div&gt;&lt;br&gt;&lt;/div&gt;user_id INT (FK&lt;span style=&quot;background-color: initial;&quot;&gt;)&lt;/span&gt;&lt;div&gt;&lt;span style=&quot;background-color: initial;&quot;&gt;&lt;br&gt;&lt;/span&gt;&lt;/div&gt;&lt;div&gt;route_info_id INT (FK)&lt;/div&gt;&lt;div&gt;&lt;br&gt;&lt;/div&gt;&lt;div&gt;current_location VARCHAR&lt;/div&gt;&lt;div&gt;&lt;br&gt;&lt;/div&gt;&lt;div&gt;&lt;div&gt;&lt;div&gt;destination_location VARCHAR&lt;/div&gt;&lt;div&gt;&lt;br&gt;&lt;/div&gt;&lt;/div&gt;&lt;/div&gt;&lt;div&gt;&lt;div&gt;navigation_type VARCHAR&lt;/div&gt;&lt;/div&gt;" style="rounded=0;whiteSpace=wrap;html=1;" vertex="1" parent="1">
          <mxGeometry x="330" y="190" width="260" height="190" as="geometry" />
        </mxCell>
        <mxCell id="o1ZbVhDIcnXMFWxJgNu6-11" value="&lt;span style=&quot;font-size: 18px;&quot;&gt;1. user-&lt;/span&gt;&lt;span style=&quot;font-size: 18px;&quot;&gt;navigation_requests_history(1:M)&lt;/span&gt;&lt;div&gt;&lt;font style=&quot;font-size: 14px;&quot;&gt;Один пользователь может иметь несколько записей в истории навигации, каждая запись может относиться только к одному пользователю.&lt;/font&gt;&lt;/div&gt;&lt;div&gt;&lt;span style=&quot;font-size: 14px;&quot;&gt;Запись в истории навигации не может существовать без пользователя.&lt;/span&gt;&lt;/div&gt;" style="text;html=1;align=center;verticalAlign=middle;whiteSpace=wrap;rounded=0;" vertex="1" parent="1">
          <mxGeometry x="240" y="6" width="350" height="120" as="geometry" />
        </mxCell>
        <mxCell id="o1ZbVhDIcnXMFWxJgNu6-12" value="&lt;span style=&quot;font-size: 18px;&quot;&gt;2. route_info-&lt;/span&gt;&lt;span style=&quot;font-size: 18px;&quot;&gt;navigation_requests_history(1:1)&lt;/span&gt;&lt;div&gt;&lt;font style=&quot;font-size: 14px;&quot;&gt;Одна запись информации о маршруте может иметь связь только с одной записью в истории навигации и наоборот.&lt;/font&gt;&lt;/div&gt;&lt;div&gt;&lt;span style=&quot;font-size: 14px;&quot;&gt;Запись в истории навигации не может существовать без записи информации о маршруте.&lt;/span&gt;&lt;/div&gt;" style="text;html=1;align=center;verticalAlign=middle;whiteSpace=wrap;rounded=0;" vertex="1" parent="1">
          <mxGeometry x="10" y="380" width="400" height="120" as="geometry" />
        </mxCell>
      </root>
    </mxGraphModel>
  </diagram>
</mxfile>
